<svg xmlns="http://www.w3.org/2000/svg" height="800" width="600" version="1.1" xmlns:xlink="http://www.w3.org/1999/xlink">

  <defs>
    <path id="clear"        d="M47.812,0v17.062h4.469v-17.062h-4.469zm-19.718,4.875l-3.782,2.375,9,14.438,3.782-2.344-9-14.469zm44.187,0.4375l-8.25,14.906,3.938,2.187,8.219-14.906-3.907-2.1875zm-63.625,16.25l-2.1874,3.938,14.843,8.25,2.188-3.906-14.844-8.282zm41.406,0.657c-15.25,0-27.624,12.417-27.624,27.719,0,15.3,12.374,27.721,27.624,27.718,15.24,0,27.594-12.416,27.594-27.718s-12.356-27.719-27.594-27.719zm41.75,0.531l-14.718,8.531,2.218,3.907,14.719-8.532-2.219-3.906zm-91.812,23.688v4.468h17v-4.468h-17zm83,0.25v4.5h17v-4.5h-17zm-63.594,15.687l-14.406,9.031,2.3438,3.813,14.406-9.063-2.344-3.781zm60.5,0.969l-2.187,3.906,14.875,8.281,2.187-3.937-14.875-8.25zm-11.312,13.625l-3.875,2.219,8.5,14.781,3.875-2.25-8.5-14.75zm-37.156,0.093l-8.25,14.938,3.906,2.156,8.25-14.937-3.906-2.157zm16.093,5.876v17.062h4.469v-17.062h-4.469z" />
    <path id="cloudy"       d="m81.245,40.626c-2.34,0-4.558,0.484-6.615,1.264-1.788-11.321-11.508-20.013-23.326-20.013-13.095,0-23.702,10.608-23.702,23.696,0,0.296,0.081,0.571,0.094,0.867-0.296-0.02-0.578-0.087-0.874-0.087-7.045,0-12.759,5.714-12.759,12.759,0,0.087,0.027,0.168,0.027,0.255-1.008-0.302-2.05-0.518-3.153-0.518-6.043,0-10.937,4.901-10.937,10.938,0,6.043,4.894,8.335,10.937,8.335h70.308c10.358,0,18.755-8.389,18.755-18.748s-8.396-18.748-18.755-18.748z" />
    <path id="flurries"     d="M51.312,4.6875c-13.094,0-23.718,10.6-23.718,23.688,0,0.296,0.08,0.579,0.094,0.875-0.296-0.02-0.58-0.094-0.876-0.094-7.044,0-12.75,5.705-12.75,12.75,0,0.087,0.032,0.163,0.032,0.25-1.008-0.302-2.054-0.5-3.156-0.5-6.0435,0-10.938,4.901-10.938,10.938,0,6.043,4.8945,8.344,10.938,8.344h70.312c10.358,0,18.75-8.392,18.75-18.75,0-10.36-8.391-18.75-18.75-18.75-2.34,0-4.568,0.47-6.625,1.25-1.788-11.322-11.495-20-23.313-20zm-9.562,59.594c-0.973,0.049-1.864,0.653-2.219,1.625-0.473,1.297,0.204,2.745,1.5,3.219,1.297,0.473,2.745-0.203,3.219-1.5s-0.203-2.745-1.5-3.219c-0.324-0.118-0.676-0.141-1-0.125zm34.438,0c-0.973,0.049-1.864,0.653-2.219,1.625-0.474,1.297,0.203,2.745,1.5,3.219,1.296,0.473,2.714-0.203,3.187-1.5,0.474-1.297-0.172-2.745-1.468-3.219-0.325-0.118-0.676-0.141-1-0.125zm-52.126,1c-0.778,0.039-1.497,0.535-1.781,1.313-0.379,1.037,0.182,2.183,1.219,2.562s2.184-0.181,2.562-1.218c0.379-1.038-0.181-2.184-1.218-2.563-0.26-0.095-0.522-0.107-0.782-0.094zm34.438,0c-0.778,0.039-1.497,0.535-1.781,1.313-0.379,1.037,0.15,2.183,1.187,2.562,1.038,0.379,2.184-0.181,2.563-1.218,0.379-1.038-0.151-2.184-1.188-2.563-0.259-0.095-0.522-0.107-0.781-0.094zm-19.125,5.5c-0.973,0.049-1.864,0.684-2.219,1.657-0.473,1.296,0.204,2.713,1.5,3.187,1.297,0.473,2.714-0.203,3.188-1.5,0.473-1.297-0.172-2.714-1.469-3.187-0.324-0.119-0.676-0.173-1-0.157zm34.437,0c-0.972,0.049-1.863,0.684-2.218,1.657-0.474,1.296,0.203,2.713,1.5,3.187,1.296,0.473,2.714-0.203,3.187-1.5,0.474-1.297-0.203-2.714-1.5-3.187-0.324-0.119-0.644-0.173-0.969-0.157zm-52.124,1c-0.779,0.039-1.498,0.535-1.782,1.313-0.379,1.037,0.151,2.183,1.188,2.562s2.215-0.15,2.594-1.187c0.378-1.038-0.182-2.184-1.219-2.563-0.26-0.094-0.522-0.138-0.781-0.125zm34.437,0c-0.778,0.039-1.497,0.535-1.781,1.313-0.379,1.037,0.15,2.183,1.187,2.562,1.038,0.379,2.184-0.15,2.563-1.187,0.379-1.038-0.151-2.184-1.188-2.563-0.259-0.094-0.522-0.138-0.781-0.125zm-19.125,5.5c-0.973,0.049-1.864,0.684-2.219,1.657-0.473,1.296,0.204,2.745,1.5,3.218,1.297,0.474,2.714-0.203,3.188-1.5,0.473-1.296-0.172-2.745-1.469-3.218-0.324-0.119-0.676-0.173-1-0.157zm34.438,0c-0.973,0.049-1.864,0.684-2.219,1.657-0.474,1.296,0.172,2.745,1.469,3.218,1.296,0.474,2.745-0.203,3.218-1.5,0.474-1.296-0.203-2.745-1.5-3.218-0.324-0.119-0.644-0.173-0.968-0.157zm-52.126,1c-0.778,0.039-1.497,0.535-1.781,1.313-0.379,1.037,0.151,2.215,1.188,2.594,1.037,0.378,2.183-0.182,2.562-1.219,0.379-1.038-0.15-2.184-1.187-2.563-0.26-0.094-0.522-0.138-0.782-0.125zm34.438,0c-0.778,0.039-1.497,0.535-1.781,1.313-0.379,1.037,0.15,2.215,1.187,2.594,1.038,0.378,2.184-0.182,2.563-1.219,0.379-1.038-0.151-2.184-1.188-2.563-0.259-0.094-0.522-0.138-0.781-0.125zm-19.125,5.531c-0.973,0.049-1.864,0.653-2.219,1.626-0.473,1.296,0.204,2.745,1.5,3.218,1.297,0.474,2.714-0.203,3.188-1.5,0.473-1.296-0.204-2.714-1.5-3.187-0.324-0.119-0.645-0.173-0.969-0.157zm34.437,0c-0.972,0.049-1.863,0.653-2.218,1.626-0.474,1.296,0.172,2.745,1.468,3.218,1.297,0.474,2.746-0.203,3.219-1.5,0.474-1.296-0.203-2.714-1.5-3.187-0.324-0.119-0.644-0.173-0.969-0.157zm-52.124,1c-0.779,0.039-1.498,0.535-1.782,1.313-0.379,1.037,0.151,2.184,1.188,2.563,1.037,0.378,2.183-0.151,2.562-1.188s-0.15-2.184-1.187-2.562c-0.26-0.095-0.522-0.138-0.781-0.126zm34.437,0c-0.778,0.039-1.497,0.535-1.781,1.313-0.379,1.037,0.15,2.184,1.187,2.563,1.038,0.378,2.184-0.151,2.563-1.188s-0.151-2.184-1.188-2.562c-0.259-0.095-0.522-0.138-0.781-0.126zm-24.844,2.219c-1.38,0-2.5,1.12-2.5,2.5,0,1.381,1.12,2.5,2.5,2.5,1.381,0,2.5-1.119,2.5-2.5,0-1.38-1.119-2.5-2.5-2.5zm34.438,0c-1.381,0-2.5,1.12-2.5,2.5,0,1.381,1.119,2.5,2.5,2.5,1.38,0,2.5-1.119,2.5-2.5,0-1.38-1.12-2.5-2.5-2.5zm-52.156,1c-1.1046,0-2,0.896-2,2,0,1.105,0.8954,2,2,2s1.9995-0.895,1.9995-2c0-1.104-0.8949-2-1.9995-2zm34.438,0c-1.105,0-2,0.896-2,2,0,1.105,0.895,2,2,2s2-0.895,2-2c0-1.104-0.895-2-2-2zm-11,2.281c-0.973,0.049-1.864,0.684-2.219,1.657-0.473,1.296,0.172,2.714,1.469,3.187,1.297,0.474,2.745-0.172,3.219-1.468,0.473-1.297-0.204-2.746-1.5-3.219-0.324-0.119-0.645-0.173-0.969-0.157zm34.438,0c-0.973,0.049-1.864,0.684-2.219,1.657-0.474,1.296,0.172,2.714,1.469,3.187,1.296,0.474,2.745-0.172,3.218-1.468,0.474-1.297-0.203-2.746-1.5-3.219-0.324-0.119-0.644-0.173-0.968-0.157zm-52.126,1c-0.778,0.039-1.497,0.535-1.781,1.313-0.379,1.037,0.151,2.184,1.188,2.563,1.037,0.378,2.183-0.151,2.562-1.188s-0.15-2.184-1.187-2.562c-0.26-0.095-0.522-0.138-0.782-0.126zm34.438,0c-0.778,0.039-1.497,0.535-1.781,1.313-0.379,1.037,0.15,2.184,1.187,2.563,1.038,0.378,2.184-0.151,2.563-1.188s-0.151-2.184-1.188-2.562c-0.259-0.095-0.522-0.138-0.781-0.126z" />
    <path id="fog"          d="M51.312,21.875c-5.183,0-9.974,1.68-13.874,4.5h27.687c-3.879-2.82-8.642-4.5-13.813-4.5zm-18.312,8.625c-1.135,1.375-2.102,2.891-2.906,4.5h42.312c-0.806-1.614-1.771-3.121-2.906-4.5h-36.5zm-4.5,8.625c-0.41,1.451-0.686,2.95-0.812,4.5h63.718c-2.932-1.897-6.403-3-10.156-3-2.34,0-4.568,0.47-6.625,1.25-0.15-0.948-0.368-1.843-0.625-2.75h-45.5zm-7.438,8.625c-2.041,1.037-3.774,2.58-5,4.5h82.532c-0.668-1.626-1.551-3.141-2.625-4.5h-74.907zm-6.718,8.625c-0.192,0.879-0.282,1.814-0.282,2.75,0,0.087,0.032,0.163,0.032,0.25-1.008-0.302-2.054-0.531-3.156-0.531-2.3633,0-4.5566,0.758-6.3442,2.031h95.344c0.039-0.499,0.062-0.991,0.062-1.5,0-1.025-0.092-2.02-0.25-3h-85.406zm-13.25,8.625c-0.66557,1.366-1.0531,2.889-1.0938,4.5h97.031c0.893-1.385,1.589-2.896,2.094-4.5h-98.031zm-0.25005,8.625c1.6598,3.194,5.5614,4.5,10.094,4.5h70.312c4.652,0,8.91-1.698,12.188-4.5h-92.594z" />
    <path id="hazy"         d="m50,3.7812c-2.2361,0.056002-4.2425,0.82896-5.8125,2.125-1.9601,1.617-3.2188,4.0236-3.2188,6.8438v55.812c-3.9221,2.9471-6.232,7.4064-6.25,12.281-0.016,6.4612,3.9266,11.869,9.4688,14.156,1.794,0.74102,3.7292,1.1765,5.7812,1.1875,1.8471,0.011,3.627-0.30923,5.25-0.90625,5.8592-2.1361,9.957-7.8234,10.062-14.156,0.08-4.9631-2.2279-9.5449-6.25-12.562v-56.219c0-2.9791-1.5174-5.4546-3.8125-6.9688-1.478-0.9772-3.295-1.5438-5.218-1.593zm0,4c1.0714,0.027299,2.0824,0.33013,2.9062,0.875,1.2786,0.84349,2.125,2.2466,2.125,3.9062v18.75,30.562,8.9375c3.7066,1.8491,6.25,5.6698,6.25,10.094,0,6.2312-5.0504,11.281-11.281,11.281-6.2312,0-11.281-5.0504-11.281-11.281,0-4.4238,2.5434-8.2444,6.25-10.094v-8.9375-30.344-18.75c0-1.5711,0.68933-2.9116,1.7812-3.8125,0.87469-0.72204,2.0043-1.1563,3.25-1.1875zm-3.0312,10.094,0,54.25c-3.6353,1.2579-6.25,4.7182-6.25,8.7812,0,5.1266,4.1548,9.2812,9.2812,9.2812,5.1266,0,9.2812-4.1548,9.2812-9.2812,0-4.0631-2.6147-7.5234-6.25-8.7812v-54.25z" />
    <path id="mostlycloudy" d="M33.469,15v11.938h3.125v-11.938h-3.125zm-13.813,3.406l-2.656,1.656,6.312,10.126,2.657-1.657-6.313-10.125zm30.938,0.313l-4.719,8.531c-2.986,0.663-5.776,1.865-8.25,3.5-0.847-0.119-1.715-0.188-2.594-0.188-10.675,0-19.312,8.695-19.312,19.407,0,1.947,0.305,3.825,0.843,5.593-0.978,1.235-1.775,2.642-2.312,4.157l-0.688-1.063-10.062,6.344,0.3438,0.562c-2.3766,2.331-3.8438,5.561-3.8438,9.126,0,3.52,1.6295,6.439,4.0938,8.093,2.4642,1.654,5.5401,2.219,8.7182,2.219h20.469,3.125,9.125,17.844,16.375c11.15,0,20.25-9.098,20.25-20.25s-9.099-20.219-20.25-20.219c-1.607,0-3.124,0.264-4.594,0.625-2.866-10.607-12.411-18.5-23.906-18.5-0.499,0-0.977,0.034-1.469,0.063l3.563-6.469-2.75-1.531zm-44.532,11.375l-1.5313,2.75,10.407,5.781,1.5-2.75-10.376-5.781zm45.188,1.344c10.088,0,18.319,7.377,19.844,17.031l0.468,2.906,2.75-1.031c1.734-0.658,3.538-1.063,5.438-1.063,8.58,0,15.5,6.89,15.5,15.469s-6.921,15.5-15.5,15.5h-16.375-17.844-32.719c-2.576,0-4.757-0.53-6.062-1.406s-2-1.922-2-4.156c0-4.463,3.5946-8.032,8.062-8.032,0.74,0,1.486,0.128,2.313,0.375l3.063,0.938v-3.219c0-0.288,0.007-0.458,0-0.5,0.133-5.302,4.412-9.5,9.75-9.5-0.078,0,0.118,0.026,0.656,0.062l2.656,0.188-0.125-2.656c-0.029-0.651-0.063-0.871-0.063-0.719,0-11.178,9.002-20.187,20.188-20.187zm-51.25,16.062v3.125h11.906v-3.125h-11.906z" />
    <path id="mostlysunny"  d="M43.031,0v15.344h4v-15.344h-4zm-17.75,4.375l-3.406,2.1562,8.125,13,3.406-2.125-8.125-13.031zm39.781,0.4062l-7.437,13.407,3.531,1.968,7.406-13.406-3.5-1.9688zm-57.281,14.625l-1.9687,3.532,13.376,7.437,1.968-3.531-13.375-7.438zm37.281,0.594c-13.724,0-24.874,11.166-24.874,24.938,0,13.77,11.15,24.94,24.874,24.937,13.716,0,24.813-11.165,24.813-24.937s-11.099-24.938-24.813-24.938zm37.563,0.5l-13.25,7.656,2.031,3.5,13.25-7.656-2.031-3.5zm-82.625,21.281v4.031h15.312v-4.031h-15.312zm74.688,0.25v4.031h15.312v-4.031h-15.312zm-57.219,14.094l-12.969,8.156,2.0938,3.407,13-8.126-2.125-3.437zm54.437,0.875l-1.968,3.531,13.406,7.438,1.937-3.531-13.375-7.438zm-10.187,12.25l-3.469,2,7.656,13.312,3.469-2-7.656-13.312zm-33.438,0.094l-7.406,13.437,3.5,1.969,7.437-13.438-3.531-1.968zm14.5,5.312v15.344h4.031v-15.344h-4.031zm37.719,2c-5.303,0-9.565,4.213-9.875,9.438-2.591,0.249-4.6,2.193-5.063,4.718-0.152-0.016-0.276-0.062-0.437-0.062-2.817,0-5.125,2.31-5.125,5.125,0,1.408,0.671,2.588,1.656,3.25,0.986,0.662,2.198,0.875,3.469,0.875h13.094,7.125,6.562c4.46,0,8.094-3.633,8.094-8.094s-3.633-8.094-8.094-8.094c-0.677,0-1.29,0.185-1.906,0.344-1.127-4.272-4.881-7.5-9.5-7.5zm0,1.906c4.035,0,7.328,2.983,7.938,6.844l0.187,1.156,1.094-0.437c0.693-0.263,1.427-0.406,2.187-0.406,3.432,0,6.188,2.756,6.188,6.187,0,3.432-2.756,6.188-6.188,6.188h-6.562-7.125-13.094c-1.031,0-1.884-0.212-2.406-0.563-0.522-0.35-0.813-0.762-0.813-1.656,0-1.785,1.432-3.219,3.219-3.219,0.296,0,0.576,0.057,0.906,0.156l1.25,0.376v-1.282c0-0.059-0.028-0.061-0.031-0.094,0-0.054-0.005-0.05,0-0.062-0.001-0.005,0.001-0.029,0-0.031,0.05-2.124,1.77-3.813,3.906-3.813-0.031,0,0.066,0.017,0.282,0.032l1.062,0.062-0.031-1.062c-0.012-0.261-0.063-0.343-0.063-0.282,0-4.471,3.62-8.094,8.094-8.094z" />
    <path id="partlycloudy" d="M33.469,15v11.938h3.125v-11.938h-3.125zm-13.813,3.406l-2.656,1.656,6.312,10.126,2.657-1.657-6.313-10.125zm30.938,0.313l-5.782,10.437,2.75,1.532,5.782-10.438-2.75-1.531zm-44.532,11.375l-1.5313,2.75,10.407,5.781,1.5-2.75-10.376-5.781zm28.968,0.468c-10.675,0-19.312,8.695-19.312,19.407,0,9.054,6.173,16.619,14.531,18.75-3.104,1.593-5.25,4.819-5.25,8.531,0,2.64,1.214,4.853,3.062,6.094,1.508,1.012,3.31,1.457,5.219,1.594v0.062h1.313,1.812,22.75,13.375,12.281c8.363,0,15.188-6.823,15.188-15.188,0-8.364-6.824-15.156-15.188-15.156-1.204,0-2.335,0.198-3.437,0.469-2.148-7.959-9.313-13.875-17.937-13.875-3.692,0-7.108,1.081-10,2.938-2.449-7.888-9.748-13.626-18.407-13.626zm29.219,0.376l-10.281,5.968,1.562,2.719,10.313-5.969-1.594-2.718zm-0.812,13.874c7.565,0,13.762,5.572,14.906,12.813l0.312,2.156,2.063-0.781c1.3-0.493,2.668-0.781,4.093-0.781,6.436,0,11.626,5.159,11.626,11.593,0,6.435-5.191,11.626-11.626,11.626h-12.281-13.375-24.562c-1.933,0-3.553-0.406-4.532-1.063-0.978-0.657-1.5-1.449-1.5-3.125,0-3.347,2.681-6.031,6.032-6.031,0.554,0,1.13,0.126,1.75,0.312l2.281,0.688v-2.407-0.187c0-4.067,3.246-7.313,7.313-7.313-0.059,0,0.097,0.036,0.5,0.063l2,0.125-0.094-2c-0.022-0.488-0.063-0.646-0.063-0.531,0-8.384,6.767-15.157,15.157-15.157zm-63.438,2.688v3.125h11.906v-3.125h-11.906zm13.562,11.156l-10.062,6.344,1.625,2.656,10.094-6.344-1.657-2.656zm8.438,10.282l-5.75,10.468,2.719,1.5,5.781-10.437-2.75-1.531z" />
    <path id="partlysunny"  d="M33.469,15v11.938h3.125v-11.938h-3.125zm-13.813,3.406l-2.656,1.656,6.312,10.126,2.657-1.657-6.313-10.125zm30.938,0.313l-5.782,10.437,2.75,1.532,5.782-10.438-2.75-1.531zm-44.532,11.375l-1.5313,2.75,10.407,5.781,1.5-2.75-10.376-5.781zm28.968,0.468c-10.675,0-19.312,8.695-19.312,19.407,0,9.054,6.173,16.619,14.531,18.75-3.104,1.593-5.25,4.819-5.25,8.531,0,2.64,1.214,4.853,3.062,6.094,1.508,1.012,3.31,1.457,5.219,1.594v0.062h1.313,1.812,22.75,13.375,12.281c8.363,0,15.188-6.823,15.188-15.188,0-8.364-6.824-15.156-15.188-15.156-1.204,0-2.335,0.198-3.437,0.469-2.148-7.959-9.313-13.875-17.937-13.875-3.692,0-7.108,1.081-10,2.938-2.449-7.888-9.748-13.626-18.407-13.626zm29.219,0.376l-10.281,5.968,1.562,2.719,10.313-5.969-1.594-2.718zm-0.812,13.874c7.565,0,13.762,5.572,14.906,12.813l0.312,2.156,2.063-0.781c1.3-0.493,2.668-0.781,4.093-0.781,6.436,0,11.626,5.159,11.626,11.593,0,6.435-5.191,11.626-11.626,11.626h-12.281-13.375-24.562c-1.933,0-3.553-0.406-4.532-1.063-0.978-0.657-1.5-1.449-1.5-3.125,0-3.347,2.681-6.031,6.032-6.031,0.554,0,1.13,0.126,1.75,0.312l2.281,0.688v-2.407-0.187c0-4.067,3.246-7.313,7.313-7.313-0.059,0,0.097,0.036,0.5,0.063l2,0.125-0.094-2c-0.022-0.488-0.063-0.646-0.063-0.531,0-8.384,6.767-15.157,15.157-15.157zm-63.438,2.688v3.125h11.906v-3.125h-11.906zm13.562,11.156l-10.062,6.344,1.625,2.656,10.094-6.344-1.657-2.656zm8.438,10.282l-5.75,10.468,2.719,1.5,5.781-10.437-2.75-1.531z" />
    <path id="rain"         d="M51.312,6.0312c-13.094,0-23.718,10.6-23.718,23.688,0,0.296,0.08,0.579,0.094,0.875-0.296-0.02-0.58-0.094-0.876-0.094-7.044,0-12.75,5.705-12.75,12.75,0,0.087,0.032,0.194,0.032,0.281-1.008-0.302-2.054-0.531-3.156-0.531-6.0435,0-10.938,4.9-10.938,10.938,0,6.042,4.8945,8.343,10.938,8.343h34.374,18.719,17.219c10.358,0,18.75-8.391,18.75-18.75s-8.391-18.75-18.75-18.75c-2.34,0-4.568,0.47-6.625,1.25-1.788-11.321-11.495-20-23.313-20zm-27.843,62.438l-9.031,24.781,1.937,0.719,9.313-25.5h-2.219zm10.343,0l-9.031,24.781,1.938,0.719,9.281-25.5h-2.188zm10.313,0l-9.031,24.781,1.937,0.719,9.281-25.5h-2.187zm10.344,0l-9.031,24.781,1.937,0.719,9.281-25.5h-2.187zm10.312,0l-9.031,24.781,1.938,0.719,9.281-25.5h-2.188zm10.313,0l-9,24.781,1.937,0.719,9.281-25.5h-2.218z" />
    <path id="sleet"        d="M51.312,4.6875c-13.094,0-23.718,10.6-23.718,23.688,0,0.296,0.08,0.579,0.094,0.875-0.296-0.02-0.58-0.094-0.876-0.094-7.044,0-12.75,5.705-12.75,12.75,0,0.087,0.032,0.163,0.032,0.25-1.008-0.302-2.054-0.5-3.156-0.5-6.0435,0-10.938,4.901-10.938,10.938,0,6.043,4.8945,8.344,10.938,8.344h70.312c10.358,0,18.75-8.392,18.75-18.75,0-10.36-8.391-18.75-18.75-18.75-2.34,0-4.568,0.47-6.625,1.25-1.788-11.322-11.495-20-23.313-20zm-9.562,59.594c-0.973,0.049-1.864,0.653-2.219,1.625-0.473,1.297,0.204,2.745,1.5,3.219,1.297,0.473,2.745-0.203,3.219-1.5s-0.203-2.745-1.5-3.219c-0.324-0.118-0.676-0.141-1-0.125zm34.438,0c-0.973,0.049-1.864,0.653-2.219,1.625-0.474,1.297,0.203,2.745,1.5,3.219,1.296,0.473,2.714-0.203,3.187-1.5,0.474-1.297-0.172-2.745-1.468-3.219-0.325-0.118-0.676-0.141-1-0.125zm-52.126,1c-0.778,0.039-1.497,0.535-1.781,1.313-0.379,1.037,0.182,2.183,1.219,2.562s2.184-0.181,2.562-1.218c0.379-1.038-0.181-2.184-1.218-2.563-0.26-0.095-0.522-0.107-0.782-0.094zm34.438,0c-0.778,0.039-1.497,0.535-1.781,1.313-0.379,1.037,0.15,2.183,1.187,2.562,1.038,0.379,2.184-0.181,2.563-1.218,0.379-1.038-0.151-2.184-1.188-2.563-0.259-0.095-0.522-0.107-0.781-0.094zm-19.125,5.5c-0.973,0.049-1.864,0.684-2.219,1.657-0.473,1.296,0.204,2.713,1.5,3.187,1.297,0.473,2.714-0.203,3.188-1.5,0.473-1.297-0.172-2.714-1.469-3.187-0.324-0.119-0.676-0.173-1-0.157zm34.437,0c-0.972,0.049-1.863,0.684-2.218,1.657-0.474,1.296,0.203,2.713,1.5,3.187,1.296,0.473,2.714-0.203,3.187-1.5,0.474-1.297-0.203-2.714-1.5-3.187-0.324-0.119-0.644-0.173-0.969-0.157zm-52.124,1c-0.779,0.039-1.498,0.535-1.782,1.313-0.379,1.037,0.151,2.183,1.188,2.562s2.215-0.15,2.594-1.187c0.378-1.038-0.182-2.184-1.219-2.563-0.26-0.094-0.522-0.138-0.781-0.125zm34.437,0c-0.778,0.039-1.497,0.535-1.781,1.313-0.379,1.037,0.15,2.183,1.187,2.562,1.038,0.379,2.184-0.15,2.563-1.187,0.379-1.038-0.151-2.184-1.188-2.563-0.259-0.094-0.522-0.138-0.781-0.125zm-19.125,5.5c-0.973,0.049-1.864,0.684-2.219,1.657-0.473,1.296,0.204,2.745,1.5,3.218,1.297,0.474,2.714-0.203,3.188-1.5,0.473-1.296-0.172-2.745-1.469-3.218-0.324-0.119-0.676-0.173-1-0.157zm34.438,0c-0.973,0.049-1.864,0.684-2.219,1.657-0.474,1.296,0.172,2.745,1.469,3.218,1.296,0.474,2.745-0.203,3.218-1.5,0.474-1.296-0.203-2.745-1.5-3.218-0.324-0.119-0.644-0.173-0.968-0.157zm-52.126,1c-0.778,0.039-1.497,0.535-1.781,1.313-0.379,1.037,0.151,2.215,1.188,2.594,1.037,0.378,2.183-0.182,2.562-1.219,0.379-1.038-0.15-2.184-1.187-2.563-0.26-0.094-0.522-0.138-0.782-0.125zm34.438,0c-0.778,0.039-1.497,0.535-1.781,1.313-0.379,1.037,0.15,2.215,1.187,2.594,1.038,0.378,2.184-0.182,2.563-1.219,0.379-1.038-0.151-2.184-1.188-2.563-0.259-0.094-0.522-0.138-0.781-0.125zm-19.125,5.531c-0.973,0.049-1.864,0.653-2.219,1.626-0.473,1.296,0.204,2.745,1.5,3.218,1.297,0.474,2.714-0.203,3.188-1.5,0.473-1.296-0.204-2.714-1.5-3.187-0.324-0.119-0.645-0.173-0.969-0.157zm34.437,0c-0.972,0.049-1.863,0.653-2.218,1.626-0.474,1.296,0.172,2.745,1.468,3.218,1.297,0.474,2.746-0.203,3.219-1.5,0.474-1.296-0.203-2.714-1.5-3.187-0.324-0.119-0.644-0.173-0.969-0.157zm-52.124,1c-0.779,0.039-1.498,0.535-1.782,1.313-0.379,1.037,0.151,2.184,1.188,2.563,1.037,0.378,2.183-0.151,2.562-1.188s-0.15-2.184-1.187-2.562c-0.26-0.095-0.522-0.138-0.781-0.126zm34.437,0c-0.778,0.039-1.497,0.535-1.781,1.313-0.379,1.037,0.15,2.184,1.187,2.563,1.038,0.378,2.184-0.151,2.563-1.188s-0.151-2.184-1.188-2.562c-0.259-0.095-0.522-0.138-0.781-0.126zm-24.844,2.219c-1.38,0-2.5,1.12-2.5,2.5,0,1.381,1.12,2.5,2.5,2.5,1.381,0,2.5-1.119,2.5-2.5,0-1.38-1.119-2.5-2.5-2.5zm34.438,0c-1.381,0-2.5,1.12-2.5,2.5,0,1.381,1.119,2.5,2.5,2.5,1.38,0,2.5-1.119,2.5-2.5,0-1.38-1.12-2.5-2.5-2.5zm-52.156,1c-1.1046,0-2,0.896-2,2,0,1.105,0.8954,2,2,2s1.9995-0.895,1.9995-2c0-1.104-0.8949-2-1.9995-2zm34.438,0c-1.105,0-2,0.896-2,2,0,1.105,0.895,2,2,2s2-0.895,2-2c0-1.104-0.895-2-2-2zm-11,2.281c-0.973,0.049-1.864,0.684-2.219,1.657-0.473,1.296,0.172,2.714,1.469,3.187,1.297,0.474,2.745-0.172,3.219-1.468,0.473-1.297-0.204-2.746-1.5-3.219-0.324-0.119-0.645-0.173-0.969-0.157zm34.438,0c-0.973,0.049-1.864,0.684-2.219,1.657-0.474,1.296,0.172,2.714,1.469,3.187,1.296,0.474,2.745-0.172,3.218-1.468,0.474-1.297-0.203-2.746-1.5-3.219-0.324-0.119-0.644-0.173-0.968-0.157zm-52.126,1c-0.778,0.039-1.497,0.535-1.781,1.313-0.379,1.037,0.151,2.184,1.188,2.563,1.037,0.378,2.183-0.151,2.562-1.188s-0.15-2.184-1.187-2.562c-0.26-0.095-0.522-0.138-0.782-0.126zm34.438,0c-0.778,0.039-1.497,0.535-1.781,1.313-0.379,1.037,0.15,2.184,1.187,2.563,1.038,0.378,2.184-0.151,2.563-1.188s-0.151-2.184-1.188-2.562c-0.259-0.095-0.522-0.138-0.781-0.126z" />
    <path id="snow"         d="m42.732,50.287,3.955,5.841,7.365,0,3.398-5.841-3.58-6.22-7.379,0zm3.033,46.974,0-13.207-7.379,4.15-3.759-2.152,0-4.653,10.943-6.22,0-8.68-7.939,5.102,0-9.196-7.589,4.374,0,12.468-4.151,2.572-3.508-2.321,0-8.356-11.518,6.498-4.919-2.07,0-5.27,12.089-6.609-7.561-3.801,0-4.822,4.291-2.349,10.845,6.386,7.533-4.346-0.182-0.139-7.701-4.417,7.477-4.64-7.505-4.346-10.844,6.372-4.068-2.026,0-4.808,7.339-4.123-11.713-6.36,0-5.269,4.5-2.319,11.544,6.666,0-8.497,3.48-2.348,4.264,2.46-0.028,12.718,7.756,4.43-0.027-8.986,8.134,4.375,0-8.68-10.943-6.233,0-4.612,3.759-2.18,7.379,4.151,0-13.18,4.222-2.768,4.261,2.768,0,13.18,7.646-4.235,3.845,2.544,0,4.151-11.322,6.414,0,8.68,7.744-4.724,0,9.448,7.979-4.348,0-13.598,3.844-1.789,4.038,1.789,0,8.694,11.879-6.416,4.153,2.53,0,4.919-11.601,6.597,7.254,4.066,0,4.697-3.76,2.083-11.138-6.583-7.702,4.892,7.449,4.642-7.673,4.416,7.926,4.15,11.138-6.221,3.578,2.53,0,4.487-6.988,3.927,11.126,6.61,0,5.188-4.71,2.152-10.931-6.221,0,8.232-3.927,2.194-3.843-2.194,0-12.496-8.092-4.611,0,8.68-7.744-4.725,0,8.68,10.944,6.22,0,4.92-3.776,1.886-7.337-4.15,0,13.207-4.26,2.738z" />
    <path id="sunny"        d="M47.812,0v17.062h4.469v-17.062h-4.469zm-19.718,4.875l-3.782,2.375,9,14.438,3.782-2.344-9-14.469zm44.187,0.4375l-8.25,14.906,3.938,2.187,8.219-14.906-3.907-2.1875zm-63.625,16.25l-2.1874,3.938,14.843,8.25,2.188-3.906-14.844-8.282zm41.406,0.657c-15.25,0-27.624,12.417-27.624,27.719,0,15.3,12.374,27.721,27.624,27.718,15.24,0,27.594-12.416,27.594-27.718s-12.356-27.719-27.594-27.719zm41.75,0.531l-14.718,8.531,2.218,3.907,14.719-8.532-2.219-3.906zm-91.812,23.688v4.468h17v-4.468h-17zm83,0.25v4.5h17v-4.5h-17zm-63.594,15.687l-14.406,9.031,2.3438,3.813,14.406-9.063-2.344-3.781zm60.5,0.969l-2.187,3.906,14.875,8.281,2.187-3.937-14.875-8.25zm-11.312,13.625l-3.875,2.219,8.5,14.781,3.875-2.25-8.5-14.75zm-37.156,0.093l-8.25,14.938,3.906,2.156,8.25-14.937-3.906-2.157zm16.093,5.876v17.062h4.469v-17.062h-4.469z" />
    <path id="tstorms"      d="M51.312,3.5625c-13.094,0-23.718,10.63-23.718,23.718,0,0.296,0.08,0.548,0.094,0.844-0.296-0.02-0.58-0.063-0.876-0.063-7.044,0-12.75,5.706-12.75,12.75,0,0.088,0.032,0.164,0.032,0.25-1.008-0.302-2.054-0.5-3.156-0.5-6.0435,0-10.938,4.901-10.938,10.938,0,6.043,4.8945,8.312,10.938,8.312h70.312c10.358,0,18.75-8.39,18.75-18.75,0-10.358-8.391-18.75-18.75-18.75-2.34,0-4.568,0.502-6.625,1.282-1.788-11.321-11.495-20.032-23.313-20.032zm-4.593,58.656l-11.969,20.531h8.562l-6.843,13.688,20.531-20.532h-10.281l8.562-13.687h-8.562zm-23.25,3.781l-9.031,24.812,1.937,0.719,9.313-25.531h-2.219zm10.343,0l-9.031,24.812,1.938,0.719,9.281-25.531h-2.188zm30.969,0l-9.031,24.812,1.938,0.719,9.281-25.531h-2.188zm10.313,0l-9,24.812,1.937,0.719,9.281-25.531h-2.218z" />
    <path id="unknown"      d="M25.5,2l-2.25,1.4688v7.0312l-3.938-2.1875-2,1.1563v2.4692l5.844,3.312v4.625l-4.344-2.313v4.782l-4.124-2.375v-6.781l-2.25-1.313-1.876,1.25v4.531l-6.1558-3.531-2.4062,1.219v2.812l6.25,3.406-3.9062,2.188v2.562l2.1562,1.094,5.781-3.406,4.031,2.312-4,2.5,4.126,2.344,0.093,0.094-4.031,2.312-5.7812-3.406-2.3126,1.25v2.563l4.0626,2.031-6.4688,3.531v2.813l2.625,1.094,6.156-3.469v4.469l1.875,1.25,2.219-1.376v-6.656l4.031-2.344v4.907l4.25-2.719v4.625l-5.844,3.344v2.469l2,1.156,3.938-2.219v7.063l2.25,1.437,2.281-1.437v-7.063l3.938,2.219,2-1v-2.625l-5.844-3.344v-4.625l4.125,2.531v-4.625l4.344,2.438v6.687l2.031,1.157,2.094-1.157v-4.406l5.843,3.313,2.532-1.126v-2.781l-5.938-3.531,3.719-2.094v-2.406l-1.906-1.344-5.969,3.313-4.219-2.188,4.094-2.375-3.969-2.468,4.094-2.626,5.969,3.532,2-1.125v-2.5l-3.875-2.188,6.187-3.5v-2.625l-2.219-1.375-6.343,3.438v-4.657l-2.157-0.937-2.031,0.937v7.282l-4.281,2.312v-5.031l-4.125,2.5v-4.625l6.063-3.438v-2.187l-2.063-1.375-4.094,2.25v-7.0312l-2.281-1.4688zm68.438,1.9375l-90,90,2.125,2.124,90-90-2.124-2.125zm-2.313,10.75c-0.939,0.03-1.808,0.36-2.469,0.906-0.833,0.688-1.344,1.706-1.344,2.906v23.75c-1.668,1.254-2.648,3.145-2.656,5.219-0.007,2.748,1.643,5.058,4,6.031,0.763,0.315,1.596,0.495,2.469,0.5,0.786,0.005,1.56-0.121,2.25-0.375,2.492-0.909,4.205-3.338,4.25-6.031,0.034-2.111-0.945-4.06-2.656-5.344v-23.906c0-1.267-0.618-2.325-1.594-2.969-0.621-0.411-1.412-0.662-2.219-0.687h-0.031zm0.031,1.718c0.456,0.012,0.869,0.144,1.219,0.375,0.544,0.359,0.906,0.951,0.906,1.657v24.781c1.577,0.786,2.657,2.399,2.657,4.281,0,2.65-2.132,4.812-4.782,4.812s-4.812-2.162-4.812-4.812c0-1.882,1.079-3.495,2.656-4.281v-24.688c0-0.668,0.286-1.242,0.75-1.625,0.372-0.307,0.876-0.486,1.406-0.5zm-68,9.125h3.938l1.906,3.313-1.812,3.125h-3.938l-2.125-3.125,2.031-3.313zm66.688,13.875v4.375c-1.546,0.535-2.656,1.991-2.656,3.719,0,2.18,1.788,3.938,3.968,3.938,2.181,0,3.938-1.758,3.938-3.938,0-1.728-1.11-3.184-2.656-3.719v-4.375h-2.594zm-22.25,4.563c-8.046,0-14.563,6.521-14.563,14.562,0,0.182,0.024,0.35,0.031,0.531-0.181-0.012-0.349-0.062-0.531-0.062-4.328,0-7.843,3.515-7.843,7.844,0,0.053,0.031,0.103,0.031,0.156-0.62-0.186-1.26-0.312-1.938-0.312-3.713,0-6.719,3.009-6.719,6.718,0,3.713,3.006,5.125,6.719,5.125h43.188c6.364-0.002,11.531-5.166,11.531-11.531,0-6.364-5.167-11.5-11.531-11.5-1.438,0-2.799,0.271-4.063,0.75-1.098-6.956-7.051-12.281-14.312-12.281zm-17.094,38.343l-5.562,15.25,1.187,0.438,5.719-15.688h-1.344zm6.344,0l-5.563,15.25,1.188,0.438,5.719-15.688h-1.344zm6.344,0l-5.563,15.25,1.187,0.438,5.719-15.688h-1.343zm6.343,0l-5.562,15.25,1.187,0.438,5.719-15.688h-1.344zm6.344,0l-5.563,15.25,1.188,0.438,5.719-15.688h-1.344zm6.344,0l-5.563,15.25,1.188,0.438,5.718-15.688h-1.343z" />
    
    <path id="moon_new"             d="M50,61.998c-6.627,0-11.999-5.372-11.999-11.998  c0-6.627,5.372-11.999,11.999-11.999c6.626,0,11.998,5.372,11.998,11.999C61.998,56.626,56.626,61.998,50,61.998z"/>
    <path id="moon_waxing_crescent" d="M50,61.999c6.627,0,11.999-5.373,11.999-11.998c0-6.627-5.372-12-11.999-12  c-6.626,0-11.998,5.373-11.998,12C38.002,56.626,43.374,61.999,50,61.999z M48.001,42.263c0.64-0.164,1.308-0.262,1.999-0.262  c4.418,0,7.999,3.582,7.999,8c0,4.416-3.581,7.998-7.999,7.998c-0.691,0-1.359-0.098-1.999-0.262C51.449,56.849,54,53.726,54,50.001  C54,46.274,51.449,43.153,48.001,42.263z"/>
    <path id="moon_first_quarter"   d="M50,61.998c-6.627,0-11.998-5.372-11.998-11.998  c0-6.627,5.371-11.999,11.998-11.999S61.999,43.373,61.999,50C61.999,56.626,56.627,61.998,50,61.998z M50,57.999  c4.418,0,7.999-3.582,7.999-7.999c0-4.418-3.581-7.999-7.999-7.999V57.999z"/>
    <path id="moon_waxing_gibbous"  d="M50,61.998c-6.627,0-11.998-5.372-11.998-11.999  c0-6.626,5.371-11.998,11.998-11.998s11.998,5.372,11.998,11.998C61.998,56.626,56.627,61.998,50,61.998z M50,42.001  c-2.209,0-4,3.581-4,7.998c0,4.418,1.791,7.999,4,7.999c4.418,0,7.999-3.581,7.999-7.999C57.999,45.582,54.418,42.001,50,42.001z"/>
    <path id="moon_full"            d="M50,61.998c-6.627,0-12-5.372-12-11.999c0-6.626,5.373-11.998,12-11.998  s11.998,5.372,11.998,11.998C61.998,56.626,56.627,61.998,50,61.998z M50,42.001c-4.418,0-8,3.581-8,7.998  c0,4.418,3.582,7.999,8,7.999s7.998-3.581,7.998-7.999C57.998,45.582,54.418,42.001,50,42.001z"/>
    <path id="moon_waning_gibbous"  d="M50,61.998c6.625,0,11.998-5.371,11.998-11.998S56.625,38.001,50,38.001  c-6.627,0-12,5.372-12,11.999S43.373,61.998,50,61.998z M50,42.002c2.209,0,3.998,3.58,3.998,7.998S52.209,57.998,50,57.998  c-4.418,0-8-3.58-8-7.998S45.582,42.002,50,42.002z"/>
    <path id="moon_last_quarter"    d="M50,61.998c6.625,0,11.998-5.371,11.998-11.999  c0-6.626-5.373-11.998-11.998-11.998c-6.627,0-12,5.372-12,11.998C38,56.627,43.373,61.998,50,61.998z M50,57.998  c-4.418,0-8-3.58-8-7.999c0-4.417,3.582-7.998,8-7.998V57.998z"/>
    <path id="moon_waning_crescent" d="M50,61.998c-6.626,0-11.999-5.371-11.999-11.998S43.374,38.001,50,38.001  c6.627,0,11.999,5.372,11.999,11.999S56.627,61.998,50,61.998z M52,42.264c-0.641-0.166-1.308-0.262-2-0.262  c-4.417,0-7.999,3.58-7.999,7.998s3.582,7.998,7.999,7.998c0.692,0,1.359-0.096,2-0.262c-3.448-0.889-5.999-4.01-5.999-7.736  S48.552,43.152,52,42.264z"/>

    <path id="thermometer_highest"    d="M50,67.867c-4.418,0-8-3.582-8-8c0-2.025,0.76-3.869,2-5.279V37.871  c0-3.313,2.686-6,6-6c3.312,0,6,2.687,6,6v16.717c1.24,1.41,1.998,3.254,1.998,5.279C57.998,64.285,54.418,67.867,50,67.867z   M52,56.422v-4.291V41.87v-3.999c0-1.104-0.896-2-2-2c-1.105,0-2,0.896-2,2v3.999v10.261v4.291c-1.189,0.693-2,1.969-2,3.445  c0,2.209,1.791,4,4,4s4-1.791,4-4C54,58.391,53.189,57.115,52,56.422z M50,62.867c-1.656,0-3-1.344-3-3c0-1.305,0.838-2.402,2-2.816  V41.807v-3.937c0-0.553,0.447-1,1-1s1,0.447,1,1v3.937v15.244c1.162,0.414,2,1.512,2,2.816C53,61.523,51.656,62.867,50,62.867z"/>
    <path id="thermometer_high"     d="M50,67.867c-4.418,0-8-3.582-8-8c0-2.025,0.76-3.869,2-5.279V37.871  c0-3.313,2.687-6,6-6c3.312,0,5.999,2.687,5.999,6v16.717c1.241,1.41,1.999,3.254,1.999,5.279  C57.998,64.285,54.418,67.867,50,67.867z M52,56.422v-4.291V41.869v-3.999c0-1.104-0.896-2-2-2c-1.104,0-2,0.896-2,2v3.999v10.262  v4.291c-1.19,0.693-2,1.969-2,3.445c0,2.209,1.791,4,4,4s3.999-1.791,3.999-4C53.999,58.391,53.189,57.115,52,56.422z M50,62.867  c-1.656,0-3-1.344-3-3c0-1.305,0.838-2.402,2-2.816V41.807h2v15.244c1.162,0.414,2,1.512,2,2.816C53,61.523,51.656,62.867,50,62.867z"/>
    <path id="thermometer_med"     d="M50,67.867c-4.418,0-8-3.582-8-8c0-2.025,0.76-3.869,2-5.279V37.871  c0-3.313,2.686-6,6-6c3.312,0,5.998,2.687,5.998,6v16.717c1.242,1.41,2,3.254,2,5.279C57.998,64.285,54.418,67.867,50,67.867z   M52,56.422v-4.291V41.87v-3.999c0-1.104-0.896-2-2-2c-1.105,0-2,0.896-2,2v3.999v10.261v4.291c-1.191,0.693-2,1.969-2,3.445  c0,2.209,1.791,4,4,4s4-1.791,4-4C54,58.391,53.189,57.115,52,56.422z M50,62.867c-1.656,0-3-1.344-3-3c0-1.305,0.838-2.402,2-2.816  V46.806h2v10.245c1.162,0.414,2,1.512,2,2.816C53,61.523,51.656,62.867,50,62.867z"/>
    <path id="thermometer_low"  d="M50,67.865c-4.418,0-7.998-3.58-7.998-7.998c0-2.025,0.758-3.869,2-5.279V37.87  c0-3.313,2.686-5.999,5.998-5.999c3.314,0,6,2.686,6,5.999v16.718c1.24,1.41,2,3.254,2,5.279C58,64.285,54.418,67.865,50,67.865z   M52,56.422v-4.293v-10.26V37.87c0-1.104-0.895-2-2-2c-1.104,0-2,0.896-2,2v3.999v10.26v4.293c-1.189,0.693-1.998,1.969-1.998,3.445  c0,2.209,1.789,3.998,3.998,3.998s4-1.789,4-3.998C54,58.391,53.191,57.115,52,56.422z M50,62.867c-1.656,0-2.998-1.344-2.998-3  c0-1.305,0.836-2.402,1.998-2.816v-5.184h2v5.184c1.162,0.414,2,1.512,2,2.816C53,61.523,51.656,62.867,50,62.867z"/>
    <path id="thermometer_lowest" d="M50,67.997c-4.417,0-7.999-3.581-7.999-7.999c0-2.025,0.759-3.869,2-5.278V38.001  c0-3.313,2.687-5.999,5.999-5.999c3.313,0,6,2.686,6,5.999V54.72c1.24,1.409,1.999,3.253,1.999,5.278  C57.999,64.416,54.418,67.997,50,67.997z M52,56.553v-4.292V42v-3.999c0-1.104-0.896-2-2-2s-1.999,0.896-1.999,2V42v10.261v4.292  c-1.19,0.693-2,1.969-2,3.445c0,2.209,1.791,3.999,3.999,3.999c2.209,0,4-1.79,4-3.999C54,58.521,53.19,57.246,52,56.553z   M50,62.998c-1.656,0-2.999-1.344-2.999-3s1.343-3,2.999-3c1.657,0,3,1.344,3,3S51.657,62.998,50,62.998z"/>

    <path id="sunrise" d="M38.688,41.859l-2.828-2.828c-0.781-0.78-2.047-0.78-2.828,0    c-0.781,0.781-0.781,2.047,0,2.828l2.828,2.828c0.781,0.781,2.047,0.781,2.828,0C39.469,43.906,39.469,42.641,38.688,41.859z     M71.997,54h-3.999c-1.104,0-1.999,0.896-1.999,2s0.895,2,1.999,2h3.999c1.105,0,2-0.896,2-2S73.103,54,71.997,54z M32.003,54h-4    c-1.104,0-2,0.896-2,2s0.896,2,2,2h4c1.104,0,2-0.896,2-2S33.106,54,32.003,54z M59.999,63.999H40.001    c-1.104,0-1.999,0.896-1.999,2s0.896,1.999,1.999,1.999h19.998c1.104,0,2-0.895,2-1.999S61.104,63.999,59.999,63.999z     M66.969,39.031c-0.78-0.78-2.048-0.78-2.828,0l-2.828,2.828c-0.78,0.781-0.78,2.047,0,2.828c0.781,0.781,2.048,0.781,2.828,0    l2.828-2.828C67.749,41.078,67.749,39.812,66.969,39.031z M50.001,40.002c1.104,0,1.999-0.896,1.999-2v-3.999    c0-1.104-0.896-2-1.999-2c-1.105,0-2,0.896-2,2v3.999C48.001,39.106,48.896,40.002,50.001,40.002z M50.001,44.002    c-6.627,0-11.999,5.371-11.999,11.998c0,1.404,0.254,2.747,0.697,3.999h4.381c-0.683-1.177-1.079-2.54-1.079-3.999    c0-4.418,3.582-7.999,8-7.999c4.417,0,7.998,3.581,7.998,7.999c0,1.459-0.396,2.822-1.078,3.999h4.381    c0.443-1.252,0.697-2.595,0.697-3.999C61.999,49.373,56.627,44.002,50.001,44.002z M50.001,60.249c0.552,0,0.999-0.447,0.999-1    v-3.827l2.536,2.535c0.39,0.391,1.023,0.391,1.414,0c0.39-0.391,0.39-1.023,0-1.414l-4.242-4.242    c-0.391-0.391-1.024-0.391-1.414,0l-4.242,4.242c-0.391,0.391-0.391,1.023,0,1.414s1.023,0.391,1.414,0l2.535-2.535v3.827    C49.001,59.802,49.448,60.249,50.001,60.249z"/>
    <path id="sunset"  d="M71.998,58h-4c-1.104,0-1.999-0.896-1.999-2s0.895-2,1.999-2h4  c1.104,0,1.999,0.896,1.999,2S73.103,58,71.998,58z M64.142,44.688c-0.781,0.781-2.048,0.781-2.828,0  c-0.781-0.781-0.781-2.047,0-2.828l2.828-2.828c0.78-0.78,2.047-0.78,2.827,0c0.781,0.781,0.781,2.047,0,2.828L64.142,44.688z   M61.302,59.999h-4.381c0.682-1.177,1.078-2.54,1.078-3.999c0-4.418-3.581-7.999-7.998-7.999c-4.418,0-8,3.581-8,7.999  c0,1.459,0.397,2.822,1.08,3.999h-4.382c-0.443-1.252-0.697-2.595-0.697-3.999c0-6.627,5.372-11.998,11.999-11.998  c6.626,0,11.998,5.371,11.998,11.998C61.999,57.404,61.745,58.747,61.302,59.999z M50.001,40.002c-1.105,0-2-0.896-2-2v-3.999  c0-1.104,0.895-2,2-2c1.104,0,2,0.896,2,2v3.999C52.001,39.106,51.104,40.002,50.001,40.002z M35.86,44.688l-2.828-2.828  c-0.781-0.781-0.781-2.047,0-2.828c0.781-0.78,2.047-0.78,2.828,0l2.828,2.828c0.781,0.781,0.781,2.047,0,2.828  S36.642,45.469,35.86,44.688z M34.003,56c0,1.104-0.896,2-2,2h-4c-1.104,0-2-0.896-2-2s0.896-2,2-2h4  C33.107,54,34.003,54.896,34.003,56z M50.001,52c0.552,0,1,0.448,1,1v3.828l2.535-2.535c0.391-0.391,1.023-0.391,1.414,0  s0.391,1.023,0,1.414l-4.242,4.242c-0.391,0.391-1.023,0.391-1.414,0l-4.242-4.242c-0.391-0.391-0.391-1.023,0-1.414  s1.023-0.391,1.414,0l2.535,2.535V53C49.001,52.448,49.448,52,50.001,52z M40.002,63.999h19.997c1.104,0,2,0.896,2,2  s-0.896,1.999-2,1.999H40.002c-1.104,0-2-0.895-2-1.999S38.897,63.999,40.002,63.999z"/>
    
    <path id="wind" d="M65.999,52L65.999,52h-3c-1.105,0-2-0.895-2-1.999s0.895-2,2-2h3  c1.104,0,2-0.896,2-1.999c0-1.105-0.896-2-2-2c-1.105,0-2-0.896-2-2s0.895-2,2-2c0.137,0,0.271,0.014,0.402,0.041  c3.121,0.211,5.596,2.783,5.596,5.959C71.997,49.314,69.312,52,65.999,52z M55.999,48.001h-2h-6.998H34.002  c-1.104,0-1.999,0.896-1.999,2S32.898,52,34.002,52h2h3.999h3h4h3h3.998h2c3.314,0,6,2.687,6,6c0,3.176-2.475,5.748-5.596,5.959  C56.272,63.986,56.138,64,55.999,64c-1.104,0-2-0.896-2-2c0-1.105,0.896-2,2-2c1.105,0,2-0.896,2-2s-0.895-2-2-2h-2h-3.998h-3h-4h-3  h-3.999h-2c-3.313,0-5.999-2.686-5.999-5.999c0-3.175,2.475-5.747,5.596-5.959c0.131-0.026,0.266-0.04,0.403-0.04l0,0h12.999h6.998  h2c1.105,0,2-0.896,2-2s-0.895-2-2-2c-1.104,0-2-0.895-2-2c0-1.104,0.896-2,2-2c0.139,0,0.273,0.015,0.404,0.041  c3.121,0.211,5.596,2.783,5.596,5.959C61.999,45.314,59.313,48.001,55.999,48.001z"/>
    <path id="rain" d="M66.499,46.501c-3.037,0-5.5,1.343-5.5,2.999c0-1.656-2.461-2.999-5.5-2.999  c-1.863,0-3.504,0.509-4.498,1.282v8.716h1v4c0,1.104,0.895,2,2,2c1.104,0,1.998-0.896,1.998-2s0.896-2,2-2c1.105,0,2,0.896,2,2  c0,3.313-2.686,5.999-5.998,5.999c-3.314,0-6-2.686-6-5.999v-4h1v-8.716c-0.994-0.773-2.635-1.282-4.5-1.282  c-3.037,0-5.498,1.343-5.498,2.999l0,0c0-1.656-2.463-2.999-5.5-2.999s-5.5,1.343-5.5,2.999c0-7.179,9.85-15.998,21.999-15.998  S71.997,42.321,71.997,49.5C71.997,47.844,69.536,46.501,66.499,46.501z"/>

  </defs>
  
  <rect height="800" width="600" fill="white" />
  
  <g transform="scale(1.2) translate(20 115)">
    <use xlink:href="#ICON_ONE" />
  </g>
  <g transform="scale(1.2) translate(34.167 399.725)">
    <use xlink:href="#ICON_TWO" />
  </g>
  <g transform="scale(1.2) translate(200 399.725)">
    <use xlink:href="#ICON_THREE" />
  </g>
  <g transform="scale(1.2) translate(365.833 399.725)">
    <use xlink:href="#ICON_FOUR" />
  </g>
  
  <g transform="scale(1.2) translate(120, 90)">
    <use xlink:href="#$thermometer" />
  </g>
  
  <g transform="scale(1.0) translate(155, 170)">
    <use xlink:href="#$cond0" />
  </g>
  <g transform="scale(1.0) translate(210, 170)">
    <use xlink:href="#$cond1" />
  </g>
  
  
  <g transform="scale(1.3) translate(271, 35)">
    <use xlink:href="#$moon" />
  </g>
  <g transform="scale(1.1) translate(330, 101)">
    <use xlink:href="#sunrise" />
  </g>
  <g transform="scale(1.1) translate(330, 155)">
    <use xlink:href="#sunset" />
  </g>
  
  <g style="font-family:Helvetica;">
    
    <text x="550" y="65" font-size="25px" style="text-anchor:end;">$location</text>
    <text x="25"  y="65" font-size="25px" style="text-anchor:front;">$date</text>
    
    <text x="25" y="120" font-size="30px" style="text-anchor:left;font-weight:bold;">Current Conditions</text>
    
    <text x="270" y="180" font-size="40px" style="text-anchor:end;">HIGH_ONE</text>
    <text x="275" y="175" font-size="30px" style="text-anchor:left;">°C</text>
    
    <text x="550" y="180" font-size="35px" style="text-anchor:end;">$sunrise</text>
    <text x="550" y="240" font-size="35px" style="text-anchor:end;">$sunset</text>
    
    
    <text x="102.92969" y="465.16922" font-size="32px" style="text-anchor:middle;">Tomorrow:</text>
    <text x="74.958336" y="635.68347" font-size="20px" style="text-anchor:middle;">High:</text>
    <text x="116.05887" y="686.32550" font-size="58px" style="text-anchor:end;">HIGH_TWO</text>
    <text x="134.01662" y="670.86145" font-size="37px" style="text-anchor:middle;">°C</text>
    <text x="71.906197" y="724.48578" font-size="20px" style="text-anchor:middle;">Low:</text>
    <text x="116.00232" y="773.51617" font-size="58px" style="text-anchor:end;">LOW_TWO</text>
    <text x="134.01663" y="758.05206" font-size="37px" style="text-anchor:middle;">°C</text>
    <text x="300.31250" y="466.15359" font-size="32px" style="text-anchor:middle;">DAY_THREE:</text>
    <text x="273.95834" y="635.68347" font-size="20px" style="text-anchor:middle;">High:</text>
    <text x="314.15454" y="686.32550" font-size="58px" style="text-anchor:end;">HIGH_THREE</text>
    <text x="333.01663" y="670.86145" font-size="37px" style="text-anchor:middle;">°C</text>
    <text x="270.90619" y="724.48578" font-size="20px" style="text-anchor:middle;">Low:</text>
    <text x="314.08383" y="773.51617" font-size="58px" style="text-anchor:end;">LOW_THREE</text>
    <text x="333.01660" y="758.05206" font-size="37px" style="text-anchor:middle;">°C</text>
    <text x="499.82812" y="466.15359" font-size="32px" style="text-anchor:middle;">DAY_FOUR:</text>
    <text x="472.95834" y="635.68347" font-size="20px" style="text-anchor:middle;">High:</text>
    <text x="513.30994" y="686.32550" font-size="58px" style="text-anchor:end;">HIGH_FOUR</text>
    <text x="532.01660" y="670.86145" font-size="37px" style="text-anchor:middle;">°C</text>
    <text x="469.90619" y="724.48578" font-size="20px" style="text-anchor:middle;">Low:</text>
    <text x="513.73383" y="773.51617" font-size="58px" style="text-anchor:end;">LOW_FOUR</text>
    <text x="532.01660" y="758.05206" font-size="37px" style="text-anchor:middle;">°C</text>
    
  </g>
  
  <path d="m199,447.35,0,321.5,3,0,0-321.5-3,0z" />
  <path d="m398,447.35,0,321.5,3,0,0-321.5-3,0z" />
</svg>
